<svg width="111" height="14" viewBox="0 0 111 14" fill="none" xmlns="http://www.w3.org/2000/svg">
<path d="M7.70373 0.745381C9.97182 0.745381 11.8235 1.71972 13.0242 3.4986L10.7764 5.41089C9.97182 4.28696 8.99747 3.70478 7.64713 3.70478C5.56907 3.70478 4.27533 5.07128 4.27533 7.15338C4.27533 9.27186 5.64184 10.695 7.83715 10.695C9.01769 10.695 9.95565 10.2826 10.554 9.59125V9.00907H7.66735V6.23564H13.7762V10.133C13.194 11.1639 12.3693 11.9887 11.3019 12.6234C10.2346 13.242 9.03386 13.5614 7.70373 13.5614C3.99232 13.618 0.923736 10.7313 0.976295 7.15338C0.919694 3.59563 3.99232 0.68878 7.70373 0.745381Z" fill="#46A358"/>
<path d="M22.9576 13.3316L20.168 9.49083H18.8379V13.3316H15.6157V0.968384H20.4672C23.2204 0.968384 25.2459 2.65428 25.2459 5.22152C25.2459 6.73761 24.5141 7.99496 23.2972 8.74289L26.5558 13.3316H22.9576ZM18.8338 6.68101H20.4833C21.3809 6.68101 21.963 6.09883 21.963 5.22152C21.963 4.34421 21.3809 3.77821 20.4833 3.77821H18.8338V6.68101Z" fill="#46A358"/>
<path d="M27.8333 0.968384H36.4124V3.87119H31.0555V5.5773H34.876V8.27392H31.0555V10.4288H36.6388V13.3316H27.8333V0.968384Z" fill="#46A358"/>
<path d="M38.6441 0.968384H47.2231V3.87119H41.8663V5.5773H45.6868V8.27392H41.8663V10.4288H47.4495V13.3316H38.6441V0.968384Z" fill="#46A358"/>
<path d="M60.4192 0.968346V13.5579H59.3882L52.681 7.05696V13.3315H49.4588V0.741943H50.4897L57.197 7.14994V0.968346H60.4192Z" fill="#46A358"/>
<path d="M64.2641 9.13502C64.9958 10.1094 65.764 10.7279 67.0173 10.7279C67.8622 10.7279 68.2908 10.4288 68.2908 9.82636C68.2908 9.28461 68.0078 9.11481 67.0334 8.68222L65.7599 8.12025C63.7183 7.21869 62.6307 6.05837 62.6307 4.3927C62.6307 2.20144 64.4298 0.737915 66.9566 0.737915C68.9983 0.737915 70.4416 1.71225 71.1895 3.22834L69.0347 4.87785C68.4363 3.98032 67.8744 3.56795 66.993 3.56795C66.3178 3.56795 65.8893 3.83073 65.8893 4.35631C65.8893 4.80507 66.1521 5.05169 66.9566 5.36704L68.3797 5.96539C70.5346 6.86695 71.5453 7.95045 71.5453 9.69294C71.5453 12.0904 69.5764 13.5539 67.0092 13.5539C64.7815 13.5539 62.9825 12.4866 62.0809 10.7805L64.2641 9.13502Z" fill="#46A358"/>
<path d="M73.393 0.968384H76.6151V5.48431H81.1309V0.968384H84.353V13.3316H81.1309V8.38712H76.6151V13.3316H73.393V0.968384Z" fill="#46A358"/>
<path d="M92.8432 0.741949C96.4414 0.665134 99.607 3.60836 99.5302 7.14994C99.603 10.7279 96.4414 13.6145 92.8432 13.5579C89.2289 13.6145 86.1159 10.7279 86.1927 7.14994C86.1159 3.60836 89.2289 0.669177 92.8432 0.741949ZM92.8594 3.70135C90.8743 3.70135 89.4876 5.10828 89.4876 7.14994C89.4876 8.18088 89.807 9.0218 90.4256 9.66058C91.0442 10.2791 91.8689 10.5985 92.8594 10.5985C94.7717 10.5985 96.2312 9.21182 96.2312 7.14994C96.2352 5.10828 94.7717 3.70135 92.8594 3.70135Z" fill="#46A358"/>
<path d="M101.374 0.968384H106.226C108.979 0.968384 111.004 2.65428 111.004 5.22152C111.004 7.75238 108.926 9.49083 106.226 9.49083H104.596V13.3316H101.374V0.968384ZM106.242 6.68101C107.139 6.68101 107.721 6.09883 107.721 5.22152C107.721 4.34421 107.139 3.77821 106.242 3.77821H104.592V6.68101H106.242Z" fill="#46A358"/>
</svg>
