<?xml version="1.0" encoding="UTF-8" standalone="no" ?>
<!DOCTYPE svg PUBLIC "-//W3C//DTD SVG 1.1//EN" "http://www.w3.org/Graphics/SVG/1.1/DTD/svg11.dtd">
<svg xmlns="http://www.w3.org/2000/svg" xmlns:xlink="http://www.w3.org/1999/xlink" version="1.1" width="31" height="31" viewBox="694 -988 31 31" xml:space="preserve">
<desc>Created with Fabric.js 4.6.0</desc>
<defs>
</defs>
<g transform="matrix(1.08 0 0 1.13 712.85 -972.52)" id="u9tmxeZJ0yORxJOG4H3_x"  >
<path style="stroke: rgb(255,255,255); stroke-width: 1.5; stroke-dasharray: none; stroke-linecap: round; stroke-dashoffset: 0; stroke-linejoin: round; stroke-miterlimit: 4; fill: none; fill-rule: nonzero; opacity: 1;" vector-effect="non-scaling-stroke"  transform=" translate(-12.14, -9.1)" d="M 17.1601 9.10057 L 7.12598 9.10057" stroke-linecap="round" />
</g>
<g transform="matrix(1.08 0 0 1.13 716.94 -972.52)" id="GwR1Wn_-pP4T8uh-RzChW"  >
<path style="stroke: rgb(255,255,255); stroke-width: 1.5; stroke-dasharray: none; stroke-linecap: round; stroke-dashoffset: 0; stroke-linejoin: round; stroke-miterlimit: 4; fill: none; fill-rule: nonzero; opacity: 1;" vector-effect="non-scaling-stroke"  transform=" translate(-15.94, -9.1)" d="M 14.7212 6.67059 L 17.1612 9.10059 L 14.7212 11.5306" stroke-linecap="round" />
</g>
<g transform="matrix(1.08 0 0 1.13 707.05 -972.63)" id="qapbBCNHRIO17jU7jET2D"  >
<path style="stroke: rgb(255,255,255); stroke-width: 1.5; stroke-dasharray: none; stroke-linecap: round; stroke-dashoffset: 0; stroke-linejoin: round; stroke-miterlimit: 4; fill: none; fill-rule: nonzero; opacity: 1;" vector-effect="non-scaling-stroke"  transform=" translate(-6.76, -9)" d="M 12.6342 5.35823 C 12.3592 2.3749 11.2425 1.29156 6.80082 1.29156 C 0.883322 1.29156 0.883322 3.21656 0.883322 8.9999 C 0.883322 14.7832 0.883322 16.7082 6.80082 16.7082 C 11.2425 16.7082 12.3592 15.6249 12.6342 12.6416" stroke-linecap="round" />
</g>
</svg>